<?xml version="1.0" encoding="UTF-8" standalone="no"?>
<!-- Created with Inkscape (http://www.inkscape.org/) -->

<svg
   width="233.14824mm"
   height="184.89278mm"
   viewBox="0 0 233.14823 184.89277"
   version="1.1"
   id="svg1"
   inkscape:version="1.3.2 (091e20e, 2023-11-25, custom)"
   sodipodi:docname="Logo.svg"
   xmlns:inkscape="http://www.inkscape.org/namespaces/inkscape"
   xmlns:sodipodi="http://sodipodi.sourceforge.net/DTD/sodipodi-0.dtd"
   xmlns="http://www.w3.org/2000/svg"
   xmlns:svg="http://www.w3.org/2000/svg">
  <sodipodi:namedview
     id="namedview1"
     pagecolor="#505050"
     bordercolor="#eeeeee"
     borderopacity="1"
     inkscape:showpageshadow="0"
     inkscape:pageopacity="0"
     inkscape:pagecheckerboard="0"
     inkscape:deskcolor="#505050"
     inkscape:document-units="mm"
     inkscape:zoom="1.6204616"
     inkscape:cx="371.80764"
     inkscape:cy="236.66096"
     inkscape:window-width="3840"
     inkscape:window-height="2054"
     inkscape:window-x="2869"
     inkscape:window-y="-11"
     inkscape:window-maximized="1"
     inkscape:current-layer="g29" />
  <defs
     id="defs1" />
  <g
     inkscape:groupmode="layer"
     id="layer3"
     inkscape:label="Layer 1"
     transform="translate(229.39294,-99.79171)">
    <path
       id="path16"
       style="display:inline;fill:#00a9a5;fill-opacity:1;stroke-width:0;stroke-dasharray:none"
       inkscape:transform-center-x="-6.3622998"
       inkscape:transform-center-y="14.122588"
       d="m -63.686493,133.83202 -157.223847,-3.9e-4 -8.4826,14.69299 c 47.66249,8.3414 94.44229,8.59137 140.257602,2.9e-4 -5.209119,3.82584 -7.890958,8.78896 -8.482868,14.69255 l -44.680474,77.38826 c -2.02698,7.4565 -1.12138,13.36724 8.48295,14.69289 31.89056,-28.87866 47.248535,-80.30176 70.129237,-121.46659 z"
       sodipodi:nodetypes="cccccccc"
       inkscape:label="path1" />
    <path
       id="path17"
       style="display:inline;fill:#092327;fill-opacity:1;stroke-width:0;stroke-dasharray:none"
       inkscape:transform-center-x="-2.1205436"
       inkscape:transform-center-y="21.468705"
       d="M -63.686493,133.83202 -133.81573,255.29861 -186.9782,163.2175 c -5.44466,-4.63454 -11.06023,-5.50923 -16.96599,3.6e-4 17.30746,47.28015 39.90037,88.64565 70.12879,121.46663 L -55.203547,148.5249 Z"
       sodipodi:nodetypes="ccccccc"
       inkscape:label="path2" />
  </g>
  <g
     inkscape:groupmode="layer"
     id="g29"
     inkscape:label="Layer 2"
     transform="translate(229.39294,-167.87153)">
    <path
       id="path27"
       style="fill:#00a9a5;fill-opacity:1;stroke-width:0;stroke-dasharray:none"
       inkscape:transform-center-x="-6.3623038"
       inkscape:transform-center-y="14.122583"
       d="m -4.7276378,167.87192 -157.2238522,-3.9e-4 -8.48259,14.69299 c 46.60291,6.73318 93.346858,7.11937 140.257593,3e-4 -8.127846,4.76501 -12.621977,9.62086 -8.482863,14.69255 l -44.680483,77.38826 c -1.187456,8.21446 2.618079,12.30427 8.482954,14.69289 27.633296,-36.99214 51.116236,-77.3935 70.1292412,-121.4666 z"
       sodipodi:nodetypes="cccccccc"
       inkscape:label="path1" />
    <path
       id="path28"
       style="fill:#092327;fill-opacity:1;stroke-width:0;stroke-dasharray:none"
       inkscape:transform-center-x="-2.1205416"
       inkscape:transform-center-y="21.4687"
       d="m -4.7276378,167.87192 -70.1292412,121.4666 -53.162461,-92.08111 c -5.9271,-3.94043 -11.65295,-4.96284 -16.966,3.5e-4 13.02685,41.78256 34.95454,82.45251 70.1288,121.46664 L 3.7553063,182.56481 Z"
       sodipodi:nodetypes="ccccccc"
       inkscape:label="path2" />
    <path
       id="path29"
       style="fill:#0b5351;fill-opacity:1;stroke-width:0;stroke-dasharray:none"
       inkscape:transform-center-x="10.603415"
       inkscape:transform-center-y="14.122235"
       d="m -30.176487,182.56482 -140.257593,-3e-4 78.611288,136.1598 16.966252,8e-5 -70.1288,-121.46664 106.32599,-3.9e-4 z"
       sodipodi:nodetypes="ccccccc"
       inkscape:label="path3" />
  </g>
  <g
     inkscape:groupmode="layer"
     id="layer4"
     inkscape:label="Layer 3"
     transform="translate(-11.21439,-33.75315)">
    <path
       id="path31"
       style="display:inline;fill:#00a9a5;fill-opacity:1;stroke-width:0;stroke-dasharray:none"
       inkscape:transform-center-x="3.7832152"
       inkscape:transform-center-y="-1.4006716"
       d="m 176.92084,67.793456 -157.223851,-3.9e-4 -8.482594,14.692995 c 48.263272,2.262336 96.581695,4.607253 140.257595,2.87e-4 z"
       sodipodi:nodetypes="ccccc"
       inkscape:label="path1" />
    <path
       id="path30"
       style="display:inline;fill:#0b5351;fill-opacity:1;stroke-width:0;stroke-dasharray:none"
       inkscape:transform-center-x="10.603416"
       inkscape:transform-center-y="14.122241"
       d="m 151.47199,82.486348 -140.257595,-2.87e-4 78.61129,136.159779 16.966245,9e-5 -70.12879,-121.466629 106.32598,-4.04e-4 z"
       sodipodi:nodetypes="ccccccc"
       inkscape:label="path3" />
  </g>
</svg>
